# xmcd
#
# Track frame offsets:
#	150
#	13265
#	25228
#	40686
#	57962
#	72640
#	95719
#	109933
#	127047
#	140748
#	157648
#	176825
#	193167
#	204799
#	217828
#
# Disc length: 3130 seconds
#
# Revision: 0
# Processed by: cddbd v1.5.2PL0 Copyright (c) Steve Scherf et al.
# Submitted via: EasyCDDAExtractor 10.2.0.1
#
DISCID=da0c380f
DTITLE=Daniel O'Donnell - Until The Next Time
DYEAR=2006
DGENRE=Country
TTITLE0=Can You Feel The Love
TTITLE1=My Love For You
TTITLE2=Crush On You
TTITLE3=(Mi Carino) Maria
TTITLE4=I Forgot To Remember To Forget You
TTITLE5=My Lovely Island Home
TTITLE6=Tonight I've Held The Future
TTITLE7=Don't Break My Heart
TTITLE8=Beyond The Rainbow's End
TTITLE9=Wherever You Are
TTITLE10=Should I
TTITLE11=Take The Hand Of Love
TTITLE12=You Gotta Feel Love
TTITLE13=Love Me Or Leave Me
TTITLE14=Until The Next Time
EXTD=
EXTT0=
EXTT1=
EXTT2=
EXTT3=
EXTT4=
EXTT5=
EXTT6=
EXTT7=
EXTT8=
EXTT9=
EXTT10=
EXTT11=
EXTT12=
EXTT13=
EXTT14=
PLAYORDER=
